<svg width="148" height="28" fill="none" xmlns="http://www.w3.org/2000/svg"><path fill-rule="evenodd" clip-rule="evenodd" d="M12.524.519c-1.708.166-3.088.51-4.432 1.105-.988.438-2.173 1.125-2.454 1.424-.28.297-.096.784.32.849.159.024.256-.02.762-.347.68-.439 1.735-.968 2.48-1.244.533-.197 1.845-.551 2.043-.551.104 0 .104.002.01.145-.855 1.282-1.455 2.869-1.944 5.137l-.086.402-.353.087c-.772.19-1.358.742-1.615 1.523-.028.086-.2.092-2.617.092-1.423 0-2.587-.015-2.587-.033 0-.095.611-1.267.876-1.681.378-.591.404-.797.13-1.04-.15-.136-.207-.155-.382-.132-.272.036-.313.076-.659.635a13.535 13.535 0 0 0 .274 14.64l.224.335-.155.3a2.215 2.215 0 0 0-.217 1.359c.255 1.488 1.857 2.3 3.186 1.614l.298-.154.468.303c2.145 1.39 4.403 2.104 6.953 2.2 4.708.174 9.149-2.138 11.779-6.135 1.493-2.268 2.267-5.062 2.165-7.81-.095-2.55-.809-4.808-2.199-6.953l-.303-.467.154-.299c.213-.413.292-.91.216-1.356-.255-1.49-1.857-2.3-3.188-1.613l-.301.155-.335-.224C19.356 1.658 17.47.934 15.4.62c-.526-.08-2.42-.147-2.876-.102Zm1.438 1.155c1.158.539 2.315 3.156 2.86 6.465l.137.831.029.172-2.725-.013-2.725-.014-.097-.254c-.18-.473-.513-.83-1.154-1.235-.03-.02.135-.786.347-1.598.695-2.672 1.853-4.483 2.867-4.483.101 0 .309.058.461.129Zm2.607.259c.387.098.941.266 1.232.373 1.203.446 2.924 1.411 2.85 1.6a2.633 2.633 0 0 0-.17 1.067c.128 1.536 1.638 2.445 3.108 1.872.071-.027.157.066.395.432.288.441.966 1.716.966 1.817 0 .027-1.469.047-3.446.047h-3.446l-.144-.883c-.42-2.574-1.117-4.722-1.956-6.029a36.085 36.085 0 0 1-.26-.409c-.063-.103.102-.082.871.113ZM23.215 3.8c.86.45.81 1.667-.085 2.076-.768.35-1.68-.315-1.598-1.166.056-.58.575-1.057 1.15-1.057.172 0 .34.046.533.147Zm-19.349.771c-.197.197-.227.368-.104.604.181.352.723.352.905 0 .14-.27.054-.578-.197-.708-.237-.123-.407-.093-.604.104Zm6.03 4.07c.552.275.798.934.551 1.476-.411.9-1.624.945-2.08.078-.128-.244-.149-.337-.131-.589.059-.842.912-1.338 1.66-.965Zm-2.64 1.647c.19.58.634 1.108 1.137 1.353l.3.147-.03 1.46a41.88 41.88 0 0 0 .123 4.084l.034.462H1.637l-.056-.172c-.115-.357-.32-1.28-.41-1.849-.069-.442-.092-.897-.09-1.805 0-1.441.103-2.193.476-3.495l.08-.277H4.43c2.614 0 2.796.006 2.824.092Zm9.857-.026c.11.336.22 3.73.162 5.006l-.04.878-.173.028c-.32.052-.759.31-1.057.623-.263.276-.55.76-.552.93 0 .097-5.534.097-5.565 0-.11-.336-.22-3.73-.162-5.003l.039-.875.257-.066c.325-.084.821-.402 1.043-.67.153-.184.369-.58.45-.825.028-.086.209-.092 2.803-.092 2.172 0 2.778.014 2.795.066Zm8.306.105c.116.359.32 1.28.41 1.849.13.836.13 2.685 0 3.52-.097.62-.24 1.288-.384 1.78l-.08.277H19.75l-.151-.346a2.319 2.319 0 0 0-.975-1.07l-.316-.17.03-1.462a41.847 41.847 0 0 0-.123-4.088l-.034-.461h7.183l.055.171Zm-7.325 6.938c.188.095.341.224.445.374.143.207.159.269.159.642s-.016.435-.159.642c-.186.267-.632.519-.92.519-.666-.002-1.184-.509-1.184-1.16 0-.875.879-1.413 1.66-1.017Zm-9.007 2.427c.428 2.625 1.128 4.757 2.006 6.108.199.305.224.372.15.384-.143.024-1.46-.324-2.043-.54-1.203-.446-2.924-1.411-2.85-1.6.128-.328.196-.756.17-1.067-.128-1.536-1.638-2.445-3.108-1.872-.071.027-.157-.066-.395-.431-.289-.442-.966-1.717-.966-1.818 0-.027 1.469-.047 3.446-.047h3.446l.144.883Zm6.366-.817c0 .036.059.19.13.344.16.343.586.801.9.968.13.069.236.152.236.186 0 .121-.32 1.468-.48 2.014-.593 2.038-1.452 3.505-2.275 3.889-.351.163-.575.163-.925 0-1.16-.54-2.273-3.056-2.861-6.465a38.02 38.02 0 0 1-.16-.963c0-.021 1.223-.04 2.717-.04 2.139 0 2.718.015 2.718.067Zm9.497-.032c0 .07-.624 1.274-.845 1.629-.983 1.579-2.508 3.104-4.087 4.087-.553.344-1.518.816-2.167 1.06-.576.216-1.882.576-2.09.576-.108 0-.108-.002-.013-.145.847-1.27 1.473-2.925 1.944-5.136l.086-.4.328-.092c.706-.196 1.214-.628 1.493-1.266l.151-.347h2.6c1.43 0 2.6.015 2.6.034ZM4.854 22.163c.883.461.795 1.741-.145 2.1-.753.288-1.595-.341-1.538-1.149.042-.61.552-1.099 1.149-1.099.173 0 .34.046.534.148Z" fill="#8E2424"/><path d="M47.81 14.454c0 1.398-.256 2.6-.767 3.606-.512 1.001-1.213 1.772-2.103 2.314-.887.537-1.895.805-3.024.805-1.133 0-2.145-.268-3.036-.805-.886-.542-1.585-1.315-2.097-2.32-.511-1.006-.767-2.206-.767-3.6 0-1.397.256-2.597.767-3.598.512-1.006 1.21-1.777 2.097-2.314.89-.541 1.903-.812 3.036-.812 1.13 0 2.137.27 3.024.812.89.537 1.591 1.308 2.103 2.314.511 1.001.767 2.2.767 3.598Zm-1.956 0c0-1.065-.173-1.962-.518-2.69-.341-.733-.81-1.287-1.406-1.662-.593-.38-1.264-.57-2.014-.57-.754 0-1.427.19-2.02.57-.592.375-1.06.928-1.406 1.662-.34.728-.511 1.625-.511 2.69 0 1.066.17 1.965.511 2.698.345.729.814 1.283 1.406 1.662.593.375 1.266.562 2.02.562.75 0 1.421-.187 2.014-.562.596-.38 1.065-.933 1.406-1.662.345-.733.518-1.632.518-2.698Zm4.265 10.228v-13.5h1.866v1.591h.16c.11-.204.27-.44.48-.71.208-.268.498-.502.869-.702.37-.205.86-.307 1.47-.307.793 0 1.5.2 2.122.6.622.401 1.11.979 1.464 1.733.358.754.537 1.662.537 2.723s-.177 1.971-.53 2.73c-.354.754-.84 1.335-1.458 1.744-.618.405-1.323.608-2.116.608-.596 0-1.084-.1-1.464-.3-.375-.2-.669-.435-.882-.704a5.316 5.316 0 0 1-.492-.716h-.115v5.21h-1.911Zm1.873-8.591c0 .69.1 1.295.3 1.815.2.52.49.927.87 1.221.379.29.843.435 1.393.435.57 0 1.048-.152 1.432-.454.383-.307.673-.722.869-1.247.2-.524.3-1.114.3-1.77 0-.648-.098-1.23-.294-1.745-.191-.516-.481-.923-.869-1.221-.383-.298-.863-.447-1.438-.447-.554 0-1.023.142-1.406.428-.38.285-.667.684-.863 1.195-.196.511-.294 1.108-.294 1.79Zm13.82-4.91v1.535h-5.364v-1.534h5.363ZM61.886 8.83h1.91v9.287c0 .37.056.65.167.837.11.184.254.31.428.378.18.064.373.096.582.096.153 0 .287-.011.403-.032l.268-.052.345 1.58c-.11.042-.268.085-.473.127-.204.047-.46.073-.767.077a3.364 3.364 0 0 1-1.406-.269 2.413 2.413 0 0 1-1.055-.869c-.268-.392-.403-.884-.403-1.476V8.83ZM67.924 21v-9.818h1.912V21h-1.912Zm.966-11.333c-.333 0-.618-.11-.857-.332a1.08 1.08 0 0 1-.352-.806c0-.315.118-.584.352-.805.239-.226.524-.34.857-.34.332 0 .615.114.85.34.238.221.358.49.358.805 0 .311-.12.58-.358.806a1.193 1.193 0 0 1-.85.332ZM72.408 21v-9.818h1.834v1.598h.122c.204-.541.539-.963 1.003-1.266.465-.307 1.021-.46 1.669-.46.656 0 1.206.153 1.649.46.447.307.778.729.99 1.266h.103a2.763 2.763 0 0 1 1.118-1.253c.512-.315 1.121-.473 1.829-.473.89 0 1.617.28 2.18.837.566.559.85 1.4.85 2.525V21h-1.912v-6.405c0-.665-.18-1.146-.543-1.444a1.976 1.976 0 0 0-1.298-.448c-.622 0-1.105.192-1.45.575-.346.38-.518.868-.518 1.464V21h-1.905v-6.526c0-.533-.166-.961-.499-1.285-.332-.324-.765-.486-1.297-.486-.363 0-.697.096-1.004.288-.302.187-.548.45-.735.786a2.409 2.409 0 0 0-.275 1.17V21h-1.911Zm22.127-4.072v-5.746h1.918V21h-1.88v-1.7h-.101a3.064 3.064 0 0 1-1.087 1.31c-.494.345-1.11.518-1.847.518-.631 0-1.19-.139-1.675-.416-.482-.28-.86-.696-1.138-1.246-.273-.55-.409-1.23-.409-2.04v-6.244h1.911v6.015c0 .669.186 1.201.556 1.598.371.396.853.594 1.445.594.358 0 .714-.09 1.068-.268.357-.18.654-.45.888-.812.239-.362.356-.823.352-1.38Zm11.843-3.35-1.732.308a2.036 2.036 0 0 0-.345-.633 1.705 1.705 0 0 0-.626-.492c-.265-.128-.595-.192-.991-.192-.541 0-.993.121-1.355.364-.363.239-.544.548-.544.927 0 .328.122.592.365.793.243.2.635.364 1.176.492l1.559.358c.904.209 1.577.53 2.02.965.444.435.665 1 .665 1.694 0 .588-.17 1.112-.511 1.572-.337.456-.808.814-1.413 1.074-.601.26-1.297.39-2.09.39-1.1 0-1.997-.234-2.691-.703-.695-.473-1.12-1.144-1.278-2.014l1.847-.28c.115.48.351.845.709 1.092.358.243.825.365 1.4.365.627 0 1.127-.13 1.502-.39.375-.264.563-.586.563-.965 0-.307-.115-.565-.345-.774-.226-.209-.574-.366-1.042-.473l-1.662-.364c-.916-.209-1.594-.541-2.033-.997-.435-.456-.652-1.034-.652-1.733 0-.58.162-1.086.486-1.52.324-.436.771-.774 1.342-1.017.571-.247 1.225-.371 1.963-.371 1.061 0 1.896.23 2.505.69.61.456 1.012 1.068 1.208 1.835Zm.465-3.969v-1.7h10.132v1.7h-4.085V21h-1.968V9.61h-4.079Zm15.025 11.59c-.967 0-1.801-.208-2.499-.62a4.202 4.202 0 0 1-1.611-1.759c-.375-.758-.563-1.647-.563-2.665 0-1.006.188-1.892.563-2.66.379-.766.907-1.365 1.585-1.795.682-.43 1.479-.646 2.391-.646.554 0 1.091.092 1.61.275.52.183.987.47 1.4.863.414.392.74.901.978 1.527.239.623.358 1.379.358 2.27v.677h-7.804v-1.432h5.931c0-.502-.102-.948-.306-1.336a2.328 2.328 0 0 0-.863-.926c-.367-.226-.797-.34-1.292-.34-.536 0-1.005.133-1.406.397-.396.26-.703.601-.92 1.023-.213.418-.32.871-.32 1.361v1.119c0 .656.115 1.214.345 1.675.235.46.561.811.978 1.054.418.239.906.358 1.464.358.362 0 .693-.05.991-.153a2.047 2.047 0 0 0 1.272-1.246l1.809.326c-.145.532-.405.999-.78 1.4a3.778 3.778 0 0 1-1.4.926c-.558.218-1.195.326-1.911.326Zm10.468 0c-.95 0-1.768-.216-2.454-.646a4.278 4.278 0 0 1-1.573-1.797c-.366-.762-.549-1.636-.549-2.62 0-.997.187-1.877.562-2.64.375-.767.904-1.366 1.585-1.796.682-.43 1.486-.646 2.41-.646.746 0 1.411.139 1.995.415a3.58 3.58 0 0 1 1.412 1.151c.362.494.578 1.072.646 1.732h-1.86a2.236 2.236 0 0 0-.703-1.189c-.363-.332-.848-.498-1.458-.498-.532 0-.999.14-1.4.422-.396.277-.705.673-.926 1.189-.222.51-.333 1.116-.333 1.815 0 .716.109 1.334.326 1.854.217.52.524.922.921 1.208.4.285.871.428 1.412.428.362 0 .691-.066.985-.198.298-.137.547-.33.747-.582.205-.251.348-.554.429-.907h1.86a3.614 3.614 0 0 1-.62 1.7 3.57 3.57 0 0 1-1.387 1.176c-.576.285-1.251.428-2.027.428Zm7.989-6.029V21h-1.911V7.91h1.885v4.87h.122a2.82 2.82 0 0 1 1.054-1.26c.474-.31 1.091-.466 1.854-.466.673 0 1.262.139 1.764.415.507.277.9.69 1.177 1.24.281.546.421 1.228.421 2.046V21h-1.911v-6.015c0-.72-.185-1.278-.556-1.675-.371-.4-.886-.6-1.547-.6-.452 0-.856.095-1.214.287a2.076 2.076 0 0 0-.838.844c-.2.366-.3.81-.3 1.33Z" fill="#3A404E"/></svg>